<svg xmlns="http://www.w3.org/2000/svg" xmlns:xlink="http://www.w3.org/1999/xlink" version="1.1" x="0px" y="0px" viewBox="0 0 100 100" enable-background="new 0 0 100 100" xml:space="preserve"><g><path d="M36.762,33.412c-0.317-0.765-1.194-1.13-1.96-0.812L19.426,38.97c-0.592,0.245-0.939,0.827-0.921,1.432   c-0.018,0.604,0.329,1.187,0.921,1.432l15.376,6.369c0.188,0.078,0.382,0.114,0.574,0.114c0.588,0,1.147-0.349,1.386-0.926   c0.317-0.766-0.046-1.643-0.812-1.96l-12.142-5.029l12.142-5.029C36.716,35.055,37.079,34.178,36.762,33.412z"></path><path d="M45.696,27.428c-0.796-0.223-1.626,0.236-1.853,1.034L37.002,52.56c-0.226,0.797,0.236,1.626,1.033,1.853   c0.137,0.038,0.275,0.057,0.411,0.057c0.653,0,1.254-0.431,1.442-1.091l6.841-24.098C46.956,28.483,46.493,27.654,45.696,27.428z"></path><rect x="76" y="76.469" width="3" height="3"></rect><path d="M93.5,35.468H83.029V16.569c0-2.262-1.844-4.102-4.107-4.102H7.107C4.842,12.468,3,14.308,3,16.569V67.45   c0,2.261,1.84,4.101,4.103,4.101L34,71.5v7.968h-4v3H43v2.728c0,1.288,1.048,2.337,2.337,2.337h16.325   c1.289,0,2.338-1.049,2.338-2.337v-0.727h29.5c1.93,0,3.5-1.57,3.5-3.5V38.968C97,37.038,95.43,35.468,93.5,35.468z M7.102,70.051   v-1.5C6.504,68.551,6,68.047,6,67.45V16.569c0-0.597,0.507-1.102,1.108-1.102h71.814c0.609,0,1.107,0.494,1.107,1.102v18.898H61.5   c-1.047,0-1.975,0.471-2.617,1.2l-9.818-4.067c-0.767-0.318-1.643,0.047-1.96,0.812c-0.317,0.766,0.046,1.643,0.812,1.96L58,39.549   v1.706l-10.083,4.176c-0.766,0.317-1.129,1.194-0.812,1.96c0.239,0.577,0.798,0.926,1.386,0.926c0.191,0,0.386-0.036,0.573-0.114   L58,44.501v6.96l-12.741-0.064c-0.645,0-1.251,0.253-1.707,0.713c-0.454,0.458-0.701,1.063-0.695,1.703l0.125,14.67L7.104,68.551   L7.102,70.051z M37,79.468v-7.974L43,71.482v7.985H37z M61,84.532H46V71.477h0.008L46,70.56V54.469h12h1.467L61,54.477v29.992   V84.532z M94,80.969c0,0.271-0.229,0.5-0.5,0.5H64V53.806c0-1.288-1.049-2.337-2.338-2.337H61V38.968c0-0.271,0.229-0.5,0.5-0.5   h21.529H93.5c0.271,0,0.5,0.229,0.5,0.5V80.969z"></path><rect x="52" y="79.469" width="3" height="3"></rect></g></svg>