<svg fill="#000" xmlns="http://www.w3.org/2000/svg" xmlns:xlink="http://www.w3.org/1999/xlink" version="1.1" x="0px" y="0px" viewBox="0 0 100 100" style="enable-background:new 0 0 100 100;" xml:space="preserve"><g><g><path d="M95,48.7c0-0.8-0.4-1.6-1.2-2L51.1,22.9c-0.7-0.4-1.5-0.4-2.2,0L6.3,46.7c-0.7,0.4-1.2,1.2-1.2,2s0.4,1.6,1.2,2L26.5,62    v2.7c0,0.1,0,0.2,0,0.3c0,0.2,0,0.3,0,0.5c0,6.8,11.8,10.4,23.5,10.4s23.5-3.6,23.5-10.4c0-0.2,0-0.3,0-0.5c0-0.1,0-0.2,0-0.3V62    l16.9-9.4v12.1c0,1.3,1,2.3,2.3,2.3s2.3-1,2.3-2.3V49C95,48.9,95,48.9,95,48.7L95,48.7z M69,59.1c-9-5.2-29-5.2-37.9,0v-7.3    c0-2,6.7-5.8,19-5.8s19,3.8,19,5.8L69,59.1L69,59.1z M50,71.2c-12.3,0-19-3.9-19-5.8c0-1.9,6.7-5.8,19-5.8s19,3.8,19,5.8    C69,67.4,62.3,71.2,50,71.2z M73.5,56.8v-5c0-13.6-47-13.6-47,0v5L12,48.7l38-21.2l38,21.2L73.5,56.8z"></path><path d="M92.7,67.8c-1.3,0-2.3,1-2.3,2.3V75c0,1.3,1,2.3,2.3,2.3s2.3-1,2.3-2.3v-5C95,68.8,94,67.8,92.7,67.8z"></path></g></g></svg>
