<svg fill="#51A7F9" xmlns:dc="http://purl.org/dc/elements/1.1/" xmlns:cc="http://creativecommons.org/ns#" xmlns:rdf="http://www.w3.org/1999/02/22-rdf-syntax-ns#" xmlns:svg="http://www.w3.org/2000/svg" xmlns="http://www.w3.org/2000/svg" xmlns:sodipodi="http://sodipodi.sourceforge.net/DTD/sodipodi-0.dtd" xmlns:inkscape="http://www.inkscape.org/namespaces/inkscape" version="1.1" x="0px" y="0px" viewBox="0 0 100 100"><g transform="translate(0,-952.36218)"><path style="text-indent:0;text-transform:none;direction:ltr;block-progression:tb;baseline-shift:baseline;color:#000000;enable-background:accumulate;" d="m 39.999144,966.36218 c -1.326197,0 -2.87969,0.26318 -4.312392,1.15625 -1.432702,0.89307 -2.687433,2.67232 -2.687432,4.84375 l 0,6 -24.9993704,0 a 2.0001495,2.0001999 0 0 0 -0.1874953,0 2.0001495,2.0001999 0 0 0 -1.8124543,2 l 0,16 0,30.00002 c 0,6.6134 5.386459,12 11.999698,12 l 63.998387,0 c 6.613239,0 11.999698,-5.3866 11.999698,-12 l 0,-30.00002 0,-16 a 2.0001496,2.0002 0 0 0 0,-0.1875 2.0001495,2.0001999 0 0 0 -0.906227,-1.46875 2.0001496,2.0002 0 0 0 -0.187495,-0.125 2.0001495,2.0001999 0 0 0 -0.187496,-0.0625 2.0001496,2.0002 0 0 0 -0.37499,-0.125 2.0001495,2.0001999 0 0 0 -0.187495,0 2.0001496,2.0002 0 0 0 -0.156246,-0.0312 l -24.999371,0 0,-6 c -10e-7,-2.17143 -1.25473,-3.95068 -2.687432,-4.84375 -1.432702,-0.89307 -2.986195,-1.15625 -4.312391,-1.15625 l -19.999496,0 z m 0,4 19.999496,0 c 0.652327,0 1.614841,0.20557 2.187445,0.5625 0.572603,0.35693 0.812479,0.60893 0.812479,1.4375 l 0,6 -25.999345,0 0,-6 c 0,-0.82857 0.239876,-1.08057 0.81248,-1.4375 0.572603,-0.35693 1.535116,-0.5625 2.187445,-0.5625 z m -29.9992448,12 24.8431238,0 55.154861,0 0,13.84375 c -0.01679,0.0139 -0.0515,0.0279 -0.156246,0.125 -0.255584,0.23688 -0.782925,0.59465 -1.531212,0.90625 -1.496571,0.62321 -3.78565,1.125 -6.312341,1.125 l -24.99937,0 0,-2 c 0,-3.28944 -2.710493,-6 -5.999849,-6 l -1.999949,0 c -3.289355,0 -5.999849,2.71056 -5.999849,6 l 0,2 -24.99937,0 c -2.526691,0 -4.81577,-0.50179 -6.312341,-1.125 -0.748286,-0.3116 -1.275628,-0.66937 -1.531212,-0.90625 -0.104747,-0.0971 -0.139457,-0.11112 -0.1562458,-0.125 l 0,-13.84375 z m 38.9990178,12 1.999949,0 c 1.142599,0 1.99995,0.85737 1.99995,2 l 0,8.00002 c 0,1.1426 -0.857351,2 -1.99995,2 l -1.999949,0 c -1.142598,0 -1.99995,-0.8574 -1.99995,-2 l 0,-8.00002 c 0,-1.14263 0.857352,-2 1.99995,-2 z m -38.9990178,6.50002 c 0.051433,0.022 0.1040688,0.041 0.1562458,0.062 2.118336,0.8821 4.830384,1.4375 7.843553,1.4375 l 24.99937,0 0,2 c 0,3.2894 2.710494,6 5.999849,6 l 1.999949,0 c 3.289356,0 5.999849,-2.7106 5.999849,-6 l 0,-2 24.99937,0 c 3.01317,0 5.725216,-0.5554 7.843553,-1.4375 0.05218,-0.022 0.104813,-0.04 0.156246,-0.062 l 0,25.5 c 0,4.4666 -3.533318,8 -7.999799,8 l -63.998387,0 c -4.466481,0 -7.9997988,-3.5334 -7.9997988,-8 l 0,-25.5 z" fill="#51A7F9" fill-opacity="1" stroke="none" marker="none" visibility="visible" display="inline" overflow="visible"></path></g></svg>