<svg fill="#51A7F9" xmlns="http://www.w3.org/2000/svg" viewBox="0 0 96.22 99.99" x="0px" y="0px"><title>puzzle</title><g data-name="Layer 2"><g data-name="line copy"><path d="M95.55,12.18c-.4-1.53-2.78-9.24-10.39-11.57C84.84.52,77.26-1.72,72,3a13.32,13.32,0,0,0-4.35,9.38,13.87,13.87,0,0,0,.22,2.54,7.3,7.3,0,0,1,0,3.22c-.24,1-.6,2.51-1.69,3.17s-2.91.21-4-.13a11.48,11.48,0,0,1-3.17-1.59,11.44,11.44,0,0,0-1-.63,60.12,60.12,0,0,0-8.93-6.37c-8.66-4.91-14.84,2.64-19.81,8.71-1.18,1.45-2.3,2.82-3.44,4-.39.42-.8.84-1.22,1.26a1.52,1.52,0,0,0-.43,1,6.29,6.29,0,0,0,.62,2.91c1.3,2.64,4.07,3.45,5.72,3.93a13,13,0,0,0,5.18.4,5.44,5.44,0,0,1,3.13.32,6.74,6.74,0,0,1,3.11,3.37c1.81,4.26-1.49,10-5.58,12.51-2.47,1.51-6.27,2.47-9.16,1.2a6,6,0,0,1-3-2.24,6.88,6.88,0,0,1-.78-3.39A15,15,0,0,0,22.09,41c-.76-1.79-1.54-3.63-3.44-4.54a5.49,5.49,0,0,0-4.65.08,1.75,1.75,0,0,0-.47.29C9,41.2,3.9,46.33,1.18,51.65a9.09,9.09,0,0,0-1,5.83c.82,4.11,5,6.3,6.71,7.24l.23.12c.11.06,12,6.65,30.83,32.32a6.62,6.62,0,0,0,3.72,2.69,5.25,5.25,0,0,0,1.22.14A7.8,7.8,0,0,0,47,98.59C57.75,91.71,62.36,87,62.55,86.82L64,85.3l.16-.17A1.49,1.49,0,0,0,64.63,84c-.08-1-.12-2-.14-3.1a1.4,1.4,0,0,0-.06-.41,6,6,0,0,0-1.3-2.28c-1.93-2.24-4.6-2.33-7-2.41-1.93-.07-3.75-.13-5.32-1.19a7.5,7.5,0,0,1-2.8-4.33C47,65.3,52.15,59.6,57.12,58.4a8,8,0,0,1,5.75.43c1.73,1,3,2.92,4.07,6.38a9.55,9.55,0,0,1,.33,2.14,7.86,7.86,0,0,0,1.32,4.42,5.09,5.09,0,0,0,2.51,2,5,5,0,0,0,3.63-.36l.73-.26a7.52,7.52,0,0,1,1-.23,1.39,1.39,0,0,0,.77-.37c2.34-2.12,4.29-3.83,5.86-5.19s2.55-2.23,3.43-3.06c.7-.65,1.34-1.18,1.91-1.64,2.71-2.21,4.13-3.71,2-9-1.63-4.11-5.69-8-9.28-11.39-1-1-2-2-2.89-2.82L78,39.15a6.24,6.24,0,0,1-1.58-2.73c-.25-1.12-.2-3,1.49-5.5a7.18,7.18,0,0,1,2.55-2.49,5.19,5.19,0,0,1,3.07-.53,14.19,14.19,0,0,0,3.9-.34,12.13,12.13,0,0,0,6.67-4C96.32,20.74,96.79,16.92,95.55,12.18Zm-3.77,9.5a9.13,9.13,0,0,1-5,3,10.49,10.49,0,0,1-3.1.26,8.06,8.06,0,0,0-4.57.89,10.06,10.06,0,0,0-3.62,3.46c-2.28,3.4-2.31,6.13-1.92,7.83a9.19,9.19,0,0,0,2.29,4.11l.32.33c.89.91,1.9,1.88,3,2.9,3.36,3.2,7.17,6.83,8.56,10.33s1,3.8-1.14,5.59c-.61.5-1.3,1.07-2.07,1.79s-2,1.76-3.35,3S77.76,68,75.54,70.05a7.94,7.94,0,0,0-1,.25c-.32.1-.61.21-.91.33-.84.33-1.2.44-1.6.31a2.24,2.24,0,0,1-1-.9,5.05,5.05,0,0,1-.78-2.9,11.69,11.69,0,0,0-.46-2.84c-1.34-4.24-3-6.73-5.48-8.09a10.71,10.71,0,0,0-7.91-.73C50,57,43.67,64.1,45.12,70.87a10.45,10.45,0,0,0,4.05,6.18c2.28,1.55,4.74,1.63,6.9,1.7s3.77.19,4.79,1.38a3.19,3.19,0,0,1,.64,1c0,.83,0,1.62.09,2.38L60.4,84.73s-4.6,4.67-15,11.34a4.35,4.35,0,0,1-3,.86,3.76,3.76,0,0,1-2-1.57C21.15,69.17,9,62.47,8.49,62.2l-.23-.13c-1.51-.8-4.64-2.46-5.18-5.18A6,6,0,0,1,3.86,53C6.33,48.18,11,43.36,15.38,39.26a2.46,2.46,0,0,1,2-.06c.84.4,1.28,1.36,2,3a12.27,12.27,0,0,1,1,4.59,9.64,9.64,0,0,0,1.16,4.7A8.78,8.78,0,0,0,25.85,55c4.16,1.82,9,.39,11.94-1.39C43,50.42,47,43.13,44.56,37.39A9.82,9.82,0,0,0,40,32.47a8.19,8.19,0,0,0-4.64-.59,10.08,10.08,0,0,1-4.09-.29c-1.33-.39-3.15-.92-3.87-2.38a3.11,3.11,0,0,1-.28-1c.28-.28.55-.57.81-.85,1.2-1.29,2.41-2.76,3.58-4.18,5.76-7,10-11.4,16-8a57.14,57.14,0,0,1,8.63,6.19,1.47,1.47,0,0,0,.4.24,6.76,6.76,0,0,1,.74.46,14.37,14.37,0,0,0,4,2c1.43.44,4.1,1.24,6.45-.17,2.17-1.31,2.75-3.75,3.06-5.05a10.2,10.2,0,0,0,.07-4.36,11.82,11.82,0,0,1-.18-2A10.34,10.34,0,0,1,74,5.25C78,1.63,84.22,3.46,84.28,3.48c6.09,1.86,8,8.2,8.37,9.46C93.64,16.73,93.35,19.67,91.78,21.68Z"></path></g></g></svg>