<svg xmlns="http://www.w3.org/2000/svg" xmlns:xlink="http://www.w3.org/1999/xlink" width="100" height="100" viewBox="0 0 100 100"><g><g transform="translate(50 50) scale(0.69 0.69) rotate(0) translate(-50 -50)" style="fill:#f38f19"><svg fill="#f38f19" xmlns="http://www.w3.org/2000/svg" xmlns:xlink="http://www.w3.org/1999/xlink" xml:space="preserve" version="1.1" style="shape-rendering:geometricPrecision;text-rendering:geometricPrecision;image-rendering:optimizeQuality;" viewBox="0 0 846.66 846.66" x="0px" y="0px" fill-rule="evenodd" clip-rule="evenodd"><defs><style type="text/css">
   
    .fil0 {fill:#f38f19;fill-rule:nonzero}
   
  </style></defs><g><path class="fil0" d="M423.32 197.59c-105.55,0 -173.05,55.82 -173.05,163.87 0,148.97 100.01,127.58 100.01,243.59l0 29.98 146.1 0 0 -29.98c0,-116.02 100.02,-94.57 100.02,-243.59 0,-108.05 -67.52,-163.87 -173.08,-163.87zm22.77 83.42l-2.72 -26.18 -40.07 0 -2.72 26.18 -25.13 10.39 -20.44 -16.56 -28.33 28.33 16.57 20.44 -10.4 25.12 -26.17 2.72 0 40.07 26.17 2.72 10.4 25.14 -16.57 20.43 28.33 28.33 20.44 -16.57 25.13 10.41 2.72 26.17 40.07 0 2.72 -26.17 25.13 -10.41 20.43 16.57 28.33 -28.33 -16.56 -20.43 10.4 -25.14 26.17 -2.72 0 -40.07 -26.17 -2.72 -10.4 -25.12 16.56 -20.44 -28.33 -28.33 -20.43 16.56 -25.13 -10.39zm-22.76 47.75c23.6,0 42.73,19.13 42.73,42.73 0,23.6 -19.13,42.73 -42.73,42.73 -23.6,0 -42.73,-19.13 -42.73,-42.73 0,-23.6 19.13,-42.73 42.73,-42.73zm-280.06 239.77c-21.75,12.62 -40.98,-20.51 -19.22,-33.14l64.13 -37.01c21.75,-12.64 40.98,20.49 19.23,33.13l-64.14 37.02zm-54.38 -164.66c-25.15,0.06 -25.24,-38.25 -0.08,-38.3l74.04 0c25.16,-0.06 25.25,38.24 0.09,38.31l-74.05 -0.01zm35.23 -169.79c-21.8,-12.52 -2.74,-45.74 19.09,-33.21l64.13 37.02c21.8,12.53 2.74,45.75 -19.09,33.22l-64.13 -37.03zm115.4 -129.42c-12.62,-21.75 20.51,-40.99 33.14,-19.22l37.02 64.12c12.63,21.76 -20.5,40.99 -33.14,19.23l-37.02 -64.13zm164.66 -54.38c-0.06,-25.15 38.25,-25.24 38.3,-0.08l0 74.04c0.06,25.15 -38.24,25.25 -38.31,0.08l0.01 -74.04zm169.79 35.22c12.52,-21.8 45.74,-2.73 33.21,19.09l-37.02 64.13c-12.53,21.8 -45.75,2.74 -33.22,-19.09l37.03 -64.13zm129.42 115.41c21.74,-12.62 40.99,20.51 19.22,33.14l-64.12 37.02c-21.76,12.62 -40.98,-20.5 -19.23,-33.14l64.13 -37.02zm54.38 164.66c25.15,-0.06 25.24,38.25 0.08,38.3l-74.04 0c-25.15,0.06 -25.25,-38.24 -0.08,-38.3l74.04 0zm-35.23 169.78c21.81,12.53 2.74,45.75 -19.08,33.21l-64.13 -37.02c-21.8,-12.52 -2.74,-45.74 19.09,-33.21l64.12 37.02zm-341.88 241.47l85.34 0 0 -14.48 -85.34 0 0 14.48zm104.58 38.47l-123.81 0c-10.62,0 -19.24,-8.62 -19.24,-19.23l0 -33.72 -10.77 0c-10.62,0 -19.24,-8.63 -19.24,-19.24 0,-46.05 -0.37,-92.02 -0.37,-138.05 0,-87.36 -100.02,-88.02 -100.02,-243.59 0,-128.97 85.06,-202.34 211.53,-202.34 126.56,0 211.55,73.32 211.55,202.34 0,155.6 -100.02,156.25 -100.02,243.59 0,46.03 -0.36,92 -0.36,138.05 0,10.61 -8.62,19.24 -19.24,19.24l-10.78 0 0 33.72c0,10.61 -8.61,19.23 -19.23,19.23zm-134.59 -141.78l0 50.36 145.37 0 0 -50.36 -145.37 0z"></path></g></svg></g></g></svg>