<?xml version="1.0" encoding="UTF-8" standalone="no"?>
<!-- Created with Inkscape (http://www.inkscape.org/) -->

<svg
   xmlns:dc="http://purl.org/dc/elements/1.1/"
   xmlns:cc="http://creativecommons.org/ns#"
   xmlns:rdf="http://www.w3.org/1999/02/22-rdf-syntax-ns#"
   xmlns:svg="http://www.w3.org/2000/svg"
   xmlns="http://www.w3.org/2000/svg"
   xmlns:sodipodi="http://sodipodi.sourceforge.net/DTD/sodipodi-0.dtd"
   xmlns:inkscape="http://www.inkscape.org/namespaces/inkscape"
   width="30px"
   height="30px"
   viewBox="0 0 30 30"
   version="1.1"
   id="SVGRoot"
   inkscape:version="0.92.3 (2405546, 2018-03-11)"
   sodipodi:docname="bradreimer-solid.svg">
  <sodipodi:namedview
     id="base"
     pagecolor="#ffffff"
     bordercolor="#666666"
     borderopacity="1.0"
     inkscape:pageopacity="0.0"
     inkscape:pageshadow="2"
     inkscape:zoom="8.5333333"
     inkscape:cx="-5.5078125"
     inkscape:cy="15"
     inkscape:document-units="px"
     inkscape:current-layer="layer1"
     showgrid="false"
     inkscape:window-width="1920"
     inkscape:window-height="1017"
     inkscape:window-x="-8"
     inkscape:window-y="-8"
     inkscape:window-maximized="1"
     inkscape:grid-bbox="true" />
  <defs
     id="defs3826" />
  <metadata
     id="metadata3829">
    <rdf:RDF>
      <cc:Work
         rdf:about="">
        <dc:format>image/svg+xml</dc:format>
        <dc:type
           rdf:resource="http://purl.org/dc/dcmitype/StillImage" />
        <dc:title></dc:title>
      </cc:Work>
    </rdf:RDF>
  </metadata>
  <g
     id="layer1"
     inkscape:groupmode="layer"
     inkscape:label="Layer 1">
    <rect
       id="bg"
       width="30"
       height="29.497458"
       x="0"
       y="0.5025425"
       style="fill:#0eabd7;fill-opacity:1;stroke-width:1.02997422"
       ry="3.8671875" />
    <g
       style="fill:#ffffff"
       id="g3856"
       transform="matrix(0.19981784,0,0,0.19981784,4.8272535,4.918663)">
      <g
         id="g3844">
        <path
           id="path3842"
           d="m 91.6,42.1 -0.1,0.1 c -0.2,0.2 -0.5,0.4 -1.1,0.4 -2.4,-0.3 -8.3,-5.9 -11.7,-11 1.2,14.3 -0.3,19.5 -1.7,24 -1.8,6 -3.3,11.2 1.3,34.7 0,0.4 0.1,1.1 -1.4,1.5 -1.2,0.4 -3.8,0.6 -6.5,0.6 -3.7,0 -8.5,-0.4 -8.9,-1.1 -1.4,-1.1 -2.1,-8.1 -1.9,-19 0,-2 0.1,-4.1 0.1,-6.4 -0.4,0.2 -1,0.4 -1.7,0.5 -5.9,0.7 -20.4,-4.5 -24,-8.9 -1.9,11.1 -6.9,16.2 -11,20.5 -3.6,3.7 -6.4,6.6 -6.1,12.1 v 0.1 0.1 c -0.3,1.6 -5.5,1.8 -7.7,1.8 -2.8,0 -7.6,-0.2 -8,-1.9 v -0.1 c -0.4,-4.4 10.2,-27 13.5,-34 1.4,-7.7 3.5,-16.8 7.1,-22.2 0,-1.4 -0.1,-2.2 -0.2,-3 -0.1,-1.3 -0.2,-2.6 0.2,-3.3 0.3,-0.6 1.1,-0.8 1.7,-0.6 1.1,0.3 2.4,2.7 3.5,5.6 5.7,1.6 11.6,3 17.6,3 5.6,0 11.2,-1.2 16.7,-4.6 0.5,-0.6 3,-4.9 5.4,-9 1.5,-2.5 3.1,-5.3 4.5,-7.6 1.3,-3 2.5,-5.6 4.4,-6.2 0.8,-0.3 1.6,-0.2 2.5,0.3 H 78 l 2,1.8 2.2,-1.8 c 0.9,-0.8 1.8,-1 2.5,-0.7 1.1,0.4 1.8,1.9 2.1,4.6 1.1,0.8 5.6,3.9 6.4,4.5 0.1,0.1 0.3,0.5 0.2,0.6 0,0.3 0.1,0.6 -2.6,2.4 l 7.6,5.2 c 0.8,0.2 1.6,0.7 -6.8,17 z"
           inkscape:connector-curvature="0" />
      </g>
    </g>
  </g>
</svg>
