<?xml version="1.0" encoding="UTF-8" standalone="no"?>
<svg
   xmlns:dc="http://purl.org/dc/elements/1.1/"
   xmlns:cc="http://creativecommons.org/ns#"
   xmlns:rdf="http://www.w3.org/1999/02/22-rdf-syntax-ns#"
   xmlns:svg="http://www.w3.org/2000/svg"
   xmlns="http://www.w3.org/2000/svg"
   xmlns:sodipodi="http://sodipodi.sourceforge.net/DTD/sodipodi-0.dtd"
   xmlns:inkscape="http://www.inkscape.org/namespaces/inkscape"
   fill="#FFFFFF"
   version="1.1"
   x="0px"
   y="0px"
   viewBox="0 0 100 100"
   style="enable-background:new 0 0 100 100;"
   xml:space="preserve"
   id="svg6"
   sodipodi:docname="schnauzer_icon.svg"
   inkscape:version="0.92.4 (5da689c313, 2019-01-14)"
   inkscape:export-filename="C:\Users\breim\Source\Repos\bradreimer.com\BradReimerWebApp\wwwroot\favicon-64x64.png"
   inkscape:export-xdpi="61.439999"
   inkscape:export-ydpi="61.439999"><metadata
     id="metadata12"><rdf:RDF><cc:Work
         rdf:about=""><dc:format>image/svg+xml</dc:format><dc:type
           rdf:resource="http://purl.org/dc/dcmitype/StillImage" /></cc:Work></rdf:RDF></metadata><defs
     id="defs10" /><sodipodi:namedview
     pagecolor="#ffffff"
     bordercolor="#666666"
     borderopacity="1"
     objecttolerance="10"
     gridtolerance="10"
     guidetolerance="10"
     inkscape:pageopacity="0"
     inkscape:pageshadow="2"
     inkscape:window-width="3840"
     inkscape:window-height="2035"
     id="namedview8"
     showgrid="false"
     inkscape:zoom="2.36"
     inkscape:cx="-131.77966"
     inkscape:cy="50"
     inkscape:window-x="-13"
     inkscape:window-y="-13"
     inkscape:window-maximized="1"
     inkscape:current-layer="svg6" /><g
     id="g4"><path
       d="M91.6,42.1l-0.1,0.1c-0.2,0.2-0.5,0.4-1.1,0.4c-2.4-0.3-8.3-5.9-11.7-11c1.2,14.3-0.3,19.5-1.7,24   c-1.8,6-3.3,11.2,1.3,34.7c0,0.4,0.1,1.1-1.4,1.5c-1.2,0.4-3.8,0.6-6.5,0.6c-3.7,0-8.5-0.4-8.9-1.1c-1.4-1.1-2.1-8.1-1.9-19   c0-2,0.1-4.1,0.1-6.4c-0.4,0.2-1,0.4-1.7,0.5c-5.9,0.7-20.4-4.5-24-8.9C32.1,68.6,27.1,73.7,23,78c-3.6,3.7-6.4,6.6-6.1,12.1l0,0.1   l0,0.1c-0.3,1.6-5.5,1.8-7.7,1.8c-2.8,0-7.6-0.2-8-1.9l0-0.1c-0.4-4.4,10.2-27,13.5-34c1.4-7.7,3.5-16.8,7.1-22.2   c0-1.4-0.1-2.2-0.2-3c-0.1-1.3-0.2-2.6,0.2-3.3c0.3-0.6,1.1-0.8,1.7-0.6c1.1,0.3,2.4,2.7,3.5,5.6c5.7,1.6,11.6,3,17.6,3   c5.6,0,11.2-1.2,16.7-4.6c0.5-0.6,3-4.9,5.4-9c1.5-2.5,3.1-5.3,4.5-7.6c1.3-3,2.5-5.6,4.4-6.2c0.8-0.3,1.6-0.2,2.5,0.3L78,8.5   l2,1.8l2.2-1.8c0.9-0.8,1.8-1,2.5-0.7c1.1,0.4,1.8,1.9,2.1,4.6c1.1,0.8,5.6,3.9,6.4,4.5c0.1,0.1,0.3,0.5,0.2,0.6   c0,0.3,0.1,0.6-2.6,2.4l7.6,5.2C99.2,25.3,100,25.8,91.6,42.1z"
       id="path2"
       style="stroke:#000000;stroke-opacity:1" /></g></svg>
